<?xml version="1.0" encoding="utf-8"?>
<!-- Generator: Adobe Illustrator 25.2.0, SVG Export Plug-In . SVG Version: 6.00 Build 0)  -->
<svg version="1.1" id="Layer_1" xmlns="http://www.w3.org/2000/svg" xmlns:xlink="http://www.w3.org/1999/xlink" x="0px" y="0px"
	 viewBox="0 0 180 31.7" style="enable-background:new 0 0 180 31.7;" xml:space="preserve">
<style type="text/css">
	.st0{fill:#E94B61;}
	.st1{fill:#605C5B;}
</style>
<path class="st0" d="M26.7,18.8l-3.4-2.8l3.4-2.7l0.1-0.1c0.4-0.4,0.6-0.9,0.6-1.5c0-0.6-0.2-1.1-0.7-1.5L15.1,0.6
	C14.7,0.2,14.2,0,13.7,0c-0.5,0-1,0.2-1.4,0.5L0.7,10.2l-0.1,0.1c-0.8,0.8-0.8,2.1,0,3L4.1,16l-3.4,2.8l-0.1,0.1
	c-0.8,0.8-0.8,2.1,0,3l11.7,9.3c0.4,0.4,0.9,0.6,1.4,0.6c0.5,0,1-0.2,1.4-0.5l7.7-6.1l3.9-3.1l0.1-0.1c0.4-0.4,0.6-0.9,0.6-1.5
	C27.3,19.8,27.1,19.2,26.7,18.8z M13.7,29.3L2.4,20.4l3.5-2.9l6.3,5c0.4,0.4,0.9,0.6,1.4,0.6c0.5,0,1-0.2,1.4-0.5l4.4-3.5l-1.9-1.5
	l-4,3.2L7.8,16l0,0l-1.9-1.5l0,0l-3.5-2.8l11.3-9.3l11.2,9.2l-3.5,2.8l-6.3-5.2c-0.4-0.4-0.9-0.6-1.4-0.6c-0.5,0-1,0.2-1.4,0.5
	l-4.5,3.7l1.9,1.5l4-3.3l11.2,9.3L13.7,29.3z"/>
<path class="st1" d="M37.8,6.6C37.8,6.3,38,6,38.3,6H49c0.3,0,0.5,0.2,0.5,0.5v0.8c0,0.3-0.2,0.5-0.5,0.5h-9.1v7.6h7.8
	c0.3,0,0.5,0.2,0.5,0.5v0.8c0,0.3-0.2,0.5-0.5,0.5h-7.8v7.6c0,0.3-0.2,0.5-0.5,0.5h-1.1c-0.3,0-0.5-0.2-0.5-0.5V6.6z M56.2,6.6
	c0-0.3,0.2-0.5,0.5-0.5h1.1c0.3,0,0.5,0.2,0.5,0.5V25c0,0.3-0.2,0.5-0.5,0.5h-1.1c-0.3,0-0.5-0.2-0.5-0.5V6.6z M66.6,6.6
	c0-0.3,0.2-0.5,0.5-0.5h0.7l12.3,15.6h0.1V6.9c0-0.3,0.2-0.5,0.5-0.5h1c0.3,0,0.5,0.2,0.5,0.5v18.7c0,0.3-0.2,0.5-0.5,0.5h-0.5
	L68.7,10.1h0v15.1c0,0.3-0.2,0.5-0.5,0.5h-1c-0.3,0-0.5-0.2-0.5-0.5L66.6,6.6L66.6,6.6z M86.7,24.7L95,6.1c0.1-0.2,0.2-0.3,0.4-0.3
	h0.3c0.2,0,0.4,0.1,0.4,0.3l8.2,18.7c0.2,0.4-0.1,0.7-0.4,0.7h-1.1c-0.2,0-0.4-0.2-0.4-0.3l-2-4.6h-9.7l-2,4.6
	c-0.1,0.1-0.2,0.3-0.4,0.3h-1.1C86.8,25.5,86.6,25.1,86.7,24.7z M99.7,18.9c-1.3-3-2.6-6.1-4-9.1h-0.2l-4,9.1H99.7z M109.3,6.6
	c0-0.3,0.2-0.5,0.5-0.5h1.1c0.3,0,0.5,0.2,0.5,0.5v17.1h7.8c0.3,0,0.5,0.2,0.5,0.5V25c0,0.3-0.2,0.5-0.5,0.5h-9.4
	c-0.3,0-0.5-0.2-0.5-0.5V6.6z M124,22.5c0.1-0.2,0.3-0.4,0.4-0.5c0.3-0.4,0.6-0.6,1-0.2c0.2,0.2,2.2,2.1,4.6,2.1
	c2.2,0,3.6-1.4,3.6-3c0-1.9-1.6-3-4.8-4.4c-3-1.3-4.8-2.6-4.8-5.7c0-1.9,1.5-4.9,5.8-4.9c2.7,0,4.7,1.4,4.7,1.4
	c0.2,0.1,0.5,0.4,0.2,0.9c-0.1,0.2-0.2,0.4-0.3,0.5c-0.2,0.4-0.5,0.5-1,0.2c-0.2-0.1-1.9-1.3-3.6-1.3c-2.9,0-3.7,1.9-3.7,3
	c0,1.9,1.4,2.9,3.7,3.9c3.7,1.5,6,2.9,6,6.2c0,2.9-2.7,5-5.9,5c-3.2,0-5.4-1.9-5.7-2.2C123.9,23.3,123.6,23.1,124,22.5z M142.1,6.6
	c0-0.3,0.2-0.5,0.5-0.5h1.1c0.3,0,0.5,0.2,0.5,0.5V25c0,0.3-0.2,0.5-0.5,0.5h-1.1c-0.3,0-0.5-0.2-0.5-0.5V6.6z M155.5,7.9h-4.7
	c-0.3,0-0.5-0.2-0.5-0.5V6.6c0-0.3,0.2-0.5,0.5-0.5h11.5c0.3,0,0.5,0.2,0.5,0.5v0.8c0,0.3-0.2,0.5-0.5,0.5h-4.7V25
	c0,0.3-0.2,0.5-0.5,0.5h-1c-0.3,0-0.5-0.2-0.5-0.5V7.9z M168.3,6.6c0-0.3,0.2-0.5,0.5-0.5h10.7c0.3,0,0.5,0.2,0.5,0.5v0.8
	c0,0.3-0.2,0.5-0.5,0.5h-9.1v6.8h7.8c0.3,0,0.5,0.2,0.5,0.5V16c0,0.3-0.2,0.5-0.5,0.5h-7.8v7.1h9.1c0.3,0,0.5,0.2,0.5,0.5v0.8
	c0,0.3-0.2,0.5-0.5,0.5h-10.7c-0.3,0-0.5-0.2-0.5-0.5V6.6z"/>
</svg>
